<svg xmlns="http://www.w3.org/2000/svg" aria-hidden="true" style="position: absolute; width: 0; height: 0; overflow: hidden;">
    <defs>
        <symbol id="icon-instagram" viewBox="0 0 32 32">
<path stroke-linejoin="round" stroke-linecap="round" stroke-miterlimit="4" stroke-width="2.1818" d="M22.667 2.667h-13.333c-3.682 0-6.667 2.985-6.667 6.667v13.333c0 3.682 2.985 6.667 6.667 6.667h13.333c3.682 0 6.667-2.985 6.667-6.667v-13.333c0-3.682-2.985-6.667-6.667-6.667z"></path>
<path stroke-linejoin="round" stroke-linecap="round" stroke-miterlimit="4" stroke-width="2.1818" d="M21.333 15.16c0.165 1.11-0.025 2.243-0.542 3.239s-1.334 1.803-2.336 2.308c-1.002 0.504-2.138 0.68-3.245 0.502s-2.131-0.701-2.924-1.494-1.316-1.816-1.494-2.924c-0.178-1.107-0.003-2.243 0.502-3.245s1.312-1.82 2.308-2.336c0.996-0.517 2.129-0.706 3.239-0.542 1.132 0.168 2.18 0.695 2.989 1.504s1.337 1.857 1.504 2.989z"></path>
<path stroke-linejoin="round" stroke-linecap="round" stroke-miterlimit="4" stroke-width="2.1818" d="M23.333 8.667h0.015"></path>
</symbol>
       
        <symbol id="icon-twitter" viewBox="0 0 36 32">
<path stroke-linejoin="round" stroke-linecap="round" stroke-miterlimit="4" stroke-width="2.6667" d="M34.074 2.667c-1.419 1.001-2.989 1.766-4.652 2.267-0.892-1.026-2.078-1.753-3.397-2.083s-2.708-0.247-3.978 0.238-2.361 1.348-3.125 2.473c-0.764 1.125-1.163 2.457-1.145 3.817v1.481c-2.604 0.068-5.183-0.51-7.51-1.681s-4.327-3.492-5.824-5.623c0 0-5.926 13.926 7.407 19.852-3.051 2.071-6.686 3.11-10.37 2.963 13.333 7.407 29.63 0 29.63-17.037-0.001-0.413-0.041-0.824-0.119-1.23 1.512-1.491 2.579-3.374 3.081-5.437z"></path>
</symbol>
        <symbol id="icon-close" viewBox="0 0 32 32">
<path d="M32 3.223l-3.223-3.223-12.777 12.777-12.777-12.777-3.223 3.223 12.777 12.777-12.777 12.777 3.223 3.223 12.777-12.777 12.777 12.777 3.223-3.223-12.777-12.777 12.777-12.777z"></path>
</symbol>
<symbol id="icon-open-menu-btn" viewBox="0 0 47 32">
<path d="M0 2.286c0 1.262 1.023 2.286 2.286 2.286h42.667c1.262 0 2.286-1.023 2.286-2.286s-1.023-2.286-2.286-2.286h-42.667c-1.262 0-2.286 1.023-2.286 2.286zM0 16c0 1.262 1.023 2.286 2.286 2.286h42.667c1.262 0 2.286-1.023 2.286-2.286s-1.023-2.286-2.286-2.286h-42.667c-1.262 0-2.286 1.023-2.286 2.286zM0 29.714c0 1.262 1.023 2.286 2.286 2.286h42.667c1.262 0 2.286-1.023 2.286-2.286s-1.023-2.286-2.286-2.286h-42.667c-1.262 0-2.286 1.023-2.286 2.286z"></path>
</symbol>

<symbol id="icon-close-btn" viewBox="0 0 32 32"><path d="M32 3.223 28.777 0 16 12.777 3.223 0 0 3.223 12.777 16 0 28.777 3.223 32 16 19.223 28.777 32 32 28.777 19.223 16 32 3.223z" /></symbol>
<symbol id="icon-chocolate-logo" viewBox="0 0 32 32">
<path  d="M3.944 20.076l10.777-17.424 0.64-0.674 8.236 5.491 0.056 3.314 2.010 3.28-8.88 14.077-12.839-8.063z"></path>
<path  stroke-miterlimit="4" stroke-linecap="round" stroke-linejoin="round" style="stroke: var(--color1, #fd9222)" d="M21.635 23.88l-14.185-8.864M11.361 8.599l14.185 8.864M10.63 25.864l11.736-19.25M27.176 14.789c-3.040-1.899-4.234-3.384-2.278-6.592l-9.626-6.015-11.736 19.25 14.186 8.864 9.454-15.507z"></path>
</symbol>
    </defs>
</svg>
